# xmcd CD database file
#
# Track frame offsets:
#	150
#	18301
#	42739
#	61277
#	82292
#	103823
#	120634
#	138237
#	157428
#	179306
#	195490
#
# Disc length: 2876 seconds
#
# Revision: 2
# Processed by: cddbd v1.5.1PL0 Copyright (c) Steve Scherf et al.
# Submitted via: Feurio! 1.68 - http://www.feurio.com
#
DISCID=a00b3a0b
DTITLE=Destiny's Child - Destiny Fulfilled
DYEAR=2004
DGENRE=blues
TTITLE0=Lose My Breath
TTITLE1=Destiny's Child ft. T.I. and Lil Wayne - Soldier
TTITLE2=Cater 2 U
TTITLE3=T-Shirt
TTITLE4=Is She The Reason
TTITLE5=Girl
TTITLE6=Bad Habit
TTITLE7=If
TTITLE8=Free
TTITLE9=Through With Love
TTITLE10=Love
EXTD=Sony - Columbia\n518\nPurchased 11/12/04
EXTT0=
EXTT1=
EXTT2=
EXTT3=
EXTT4=
EXTT5=
EXTT6=
EXTT7=
EXTT8=
EXTT9=
EXTT10=
PLAYORDER=
